<svg xmlns="http://www.w3.org/2000/svg" width="980" height="430" viewBox="0 0 980 430">
<rect width="100%" height="100%" fill="#f7f3ea"/>
<g font-family="DejaVu Sans, sans-serif" fill="#18211d">
<text x="40" y="32" font-size="20" font-weight="700">Equal-capacity cache associativity comparison</text>
<text x="40" y="55" font-size="12">Observed hit rate under identical deterministic workloads</text>
<line x1="60" y1="360" x2="950" y2="360" stroke="#56635d"/>
<rect x="80" y="136.7" width="26" height="223.3" fill="#c84b31"/>
<rect x="112" y="136.7" width="26" height="223.3" fill="#167d6d"/>
<text x="108" y="382" font-size="10" text-anchor="middle">sequential</text>
<rect x="200" y="352.0" width="26" height="8.0" fill="#c84b31"/>
<rect x="232" y="352.0" width="26" height="8.0" fill="#167d6d"/>
<text x="228" y="382" font-size="10" text-anchor="middle">uniform</text>
<rect x="320" y="155.8" width="26" height="204.2" fill="#c84b31"/>
<rect x="352" y="155.8" width="26" height="204.2" fill="#167d6d"/>
<text x="348" y="382" font-size="10" text-anchor="middle">hot-set</text>
<rect x="440" y="360.0" width="26" height="0.0" fill="#c84b31"/>
<rect x="472" y="108.0" width="26" height="252.0" fill="#167d6d"/>
<text x="468" y="382" font-size="10" text-anchor="middle">same-set</text>
<rect x="560" y="348.8" width="26" height="11.2" fill="#c84b31"/>
<rect x="592" y="348.8" width="26" height="11.2" fill="#167d6d"/>
<text x="588" y="382" font-size="10" text-anchor="middle">read-heavy</text>
<rect x="680" y="355.2" width="26" height="4.8" fill="#c84b31"/>
<rect x="712" y="355.2" width="26" height="4.8" fill="#167d6d"/>
<text x="708" y="382" font-size="10" text-anchor="middle">write-heavy</text>
<rect x="800" y="348.8" width="26" height="11.2" fill="#c84b31"/>
<rect x="832" y="348.8" width="26" height="11.2" fill="#167d6d"/>
<text x="828" y="382" font-size="10" text-anchor="middle">mixed-strobes</text>
<rect x="690" y="70" width="14" height="14" fill="#c84b31"/><text x="712" y="82" font-size="11">direct mapped</text>
<rect x="805" y="70" width="14" height="14" fill="#167d6d"/><text x="827" y="82" font-size="11">2-way</text>
</g></svg>
