<svg xmlns="http://www.w3.org/2000/svg" width="1200" height="520" viewBox="0 0 1200 520"><style>.title{font:700 28px Georgia;fill:#142b35}.h{font:700 17px Georgia;fill:#142b35}.t{font:14px Georgia;fill:#294550}.box{fill:#f7f2e8;stroke:#1b6573;stroke-width:2}.accent{fill:#f2b38f;stroke:#a64c2a;stroke-width:2}.ok{fill:#dce9e7;stroke:#28705b;stroke-width:2}.line{stroke:#1b6573;stroke-width:3;fill:none;marker-end:url(#a)}</style><defs><marker id="a" markerWidth="8" markerHeight="8" refX="7" refY="4" orient="auto"><path d="M0,0 L8,4 L0,8 z" fill="#1b6573"/></marker></defs><rect width="100%" height="100%" fill="#fffdf7"/><text class="title" x="35" y="48">Formal-discovered failed-store occupancy bug</text><rect class="box" x="35" y="135" width="190" height="125" rx="14"/><text class="h" x="50" y="180">Head store</text><text class="t" x="50" y="215">AXI error returns</text><path class="line" d="M225,198 L260,198"/><rect class="box" x="270" y="135" width="190" height="125" rx="14"/><text class="h" x="285" y="180">Same cycle</text><text class="t" x="285" y="215">younger enqueue</text><path class="line" d="M460,198 L495,198"/><rect class="accent" x="505" y="135" width="190" height="125" rx="14"/><text class="h" x="520" y="180">Original defect</text><text class="t" x="520" y="215">tail moved; count stale</text><path class="line" d="M695,198 L730,198"/><rect class="accent" x="740" y="135" width="190" height="125" rx="14"/><text class="h" x="755" y="180">Risk</text><text class="t" x="755" y="215">failed head overwritten</text><path class="line" d="M930,198 L965,198"/><rect class="ok" x="975" y="135" width="190" height="125" rx="14"/><text class="h" x="990" y="180">Fix + proof</text><text class="t" x="990" y="215">count both entries</text><rect class="box" x="185" y="335" width="830" height="90" rx="14"/><text class="h" x="235" y="370">Detection stack</text><text class="t" x="235" y="400">Solver counterexample -> executable synchronized edge test -> independent replay -> expected-fail mutation</text></svg>