<svg xmlns="http://www.w3.org/2000/svg" width="826" height="371" viewBox="0 0 826 371">
<rect width="826" height="371" fill="#f7f3ea"/>
<g font-family="DejaVu Sans, sans-serif" fill="#18211d">
<text x="18" y="26" font-size="17" font-weight="700">Early-WLAST mutation: assertion-driven debug</text>
<text x="18" y="47" font-size="11">Highlighted cycle terminates a four-beat writeback at beat 2 instead of beat 3.</text>
<rect x="150" y="42" width="82" height="294" fill="#e8e2d5" opacity="0.62"/>
<text x="191.0" y="57" text-anchor="middle" font-size="10">cycle 34</text>
<rect x="232" y="42" width="82" height="294" fill="#e8e2d5" opacity="0.62"/>
<text x="273.0" y="57" text-anchor="middle" font-size="10">cycle 35</text>
<rect x="314" y="42" width="82" height="294" fill="#e8e2d5" opacity="0.62"/>
<text x="355.0" y="57" text-anchor="middle" font-size="10">cycle 36</text>
<rect x="396" y="42" width="82" height="294" fill="#e8e2d5" opacity="0.62"/>
<text x="437.0" y="57" text-anchor="middle" font-size="10">cycle 37</text>
<rect x="478" y="42" width="82" height="294" fill="#e8e2d5" opacity="0.62"/>
<text x="519.0" y="57" text-anchor="middle" font-size="10">cycle 38</text>
<rect x="560" y="42" width="82" height="294" fill="#f3c8bd" opacity="0.62"/>
<text x="601.0" y="57" text-anchor="middle" font-size="10">cycle 39</text>
<rect x="642" y="42" width="82" height="294" fill="#e8e2d5" opacity="0.62"/>
<text x="683.0" y="57" text-anchor="middle" font-size="10">cycle 40</text>
<rect x="724" y="42" width="82" height="294" fill="#e8e2d5" opacity="0.62"/>
<text x="765.0" y="57" text-anchor="middle" font-size="10">cycle 41</text>
<text x="12" y="85" font-size="11">state</text>
<line x1="150" y1="98" x2="806" y2="98" stroke="#c6bfb1"/>
<text x="191.0" y="85" text-anchor="middle" font-size="11" font-weight="400" fill="#18211d">IDLE</text>
<text x="273.0" y="85" text-anchor="middle" font-size="11" font-weight="400" fill="#18211d">LOOKUP</text>
<text x="355.0" y="85" text-anchor="middle" font-size="11" font-weight="400" fill="#18211d">WB_AW</text>
<text x="437.0" y="85" text-anchor="middle" font-size="11" font-weight="400" fill="#18211d">WB_W</text>
<text x="519.0" y="85" text-anchor="middle" font-size="11" font-weight="400" fill="#18211d">WB_W</text>
<text x="601.0" y="85" text-anchor="middle" font-size="11" font-weight="400" fill="#18211d">WB_W</text>
<text x="683.0" y="85" text-anchor="middle" font-size="11" font-weight="400" fill="#18211d">WB_W</text>
<text x="765.0" y="85" text-anchor="middle" font-size="11" font-weight="400" fill="#18211d">WB_W</text>
<text x="12" y="119" font-size="11">AW handshake</text>
<line x1="150" y1="132" x2="806" y2="132" stroke="#c6bfb1"/>
<text x="191.0" y="119" text-anchor="middle" font-size="11" font-weight="400" fill="#18211d">0</text>
<text x="273.0" y="119" text-anchor="middle" font-size="11" font-weight="400" fill="#18211d">0</text>
<text x="355.0" y="119" text-anchor="middle" font-size="11" font-weight="700" fill="#18211d">1</text>
<text x="437.0" y="119" text-anchor="middle" font-size="11" font-weight="400" fill="#18211d">0</text>
<text x="519.0" y="119" text-anchor="middle" font-size="11" font-weight="400" fill="#18211d">0</text>
<text x="601.0" y="119" text-anchor="middle" font-size="11" font-weight="400" fill="#18211d">0</text>
<text x="683.0" y="119" text-anchor="middle" font-size="11" font-weight="400" fill="#18211d">0</text>
<text x="765.0" y="119" text-anchor="middle" font-size="11" font-weight="400" fill="#18211d">0</text>
<text x="12" y="153" font-size="11">W handshake</text>
<line x1="150" y1="166" x2="806" y2="166" stroke="#c6bfb1"/>
<text x="191.0" y="153" text-anchor="middle" font-size="11" font-weight="400" fill="#18211d">0</text>
<text x="273.0" y="153" text-anchor="middle" font-size="11" font-weight="400" fill="#18211d">0</text>
<text x="355.0" y="153" text-anchor="middle" font-size="11" font-weight="400" fill="#18211d">0</text>
<text x="437.0" y="153" text-anchor="middle" font-size="11" font-weight="700" fill="#18211d">1</text>
<text x="519.0" y="153" text-anchor="middle" font-size="11" font-weight="700" fill="#18211d">1</text>
<text x="601.0" y="153" text-anchor="middle" font-size="11" font-weight="400" fill="#18211d">0</text>
<text x="683.0" y="153" text-anchor="middle" font-size="11" font-weight="400" fill="#18211d">0</text>
<text x="765.0" y="153" text-anchor="middle" font-size="11" font-weight="400" fill="#18211d">0</text>
<text x="12" y="187" font-size="11">writeback beat</text>
<line x1="150" y1="200" x2="806" y2="200" stroke="#c6bfb1"/>
<text x="191.0" y="187" text-anchor="middle" font-size="11" font-weight="400" fill="#18211d">-</text>
<text x="273.0" y="187" text-anchor="middle" font-size="11" font-weight="400" fill="#18211d">-</text>
<text x="355.0" y="187" text-anchor="middle" font-size="11" font-weight="400" fill="#18211d">-</text>
<text x="437.0" y="187" text-anchor="middle" font-size="11" font-weight="400" fill="#18211d">0</text>
<text x="519.0" y="187" text-anchor="middle" font-size="11" font-weight="700" fill="#18211d">1</text>
<text x="601.0" y="187" text-anchor="middle" font-size="11" font-weight="400" fill="#18211d">2</text>
<text x="683.0" y="187" text-anchor="middle" font-size="11" font-weight="400" fill="#18211d">-</text>
<text x="765.0" y="187" text-anchor="middle" font-size="11" font-weight="400" fill="#18211d">-</text>
<text x="12" y="221" font-size="11">WLAST</text>
<line x1="150" y1="234" x2="806" y2="234" stroke="#c6bfb1"/>
<text x="191.0" y="221" text-anchor="middle" font-size="11" font-weight="400" fill="#18211d">0</text>
<text x="273.0" y="221" text-anchor="middle" font-size="11" font-weight="400" fill="#18211d">0</text>
<text x="355.0" y="221" text-anchor="middle" font-size="11" font-weight="400" fill="#18211d">0</text>
<text x="437.0" y="221" text-anchor="middle" font-size="11" font-weight="400" fill="#18211d">0</text>
<text x="519.0" y="221" text-anchor="middle" font-size="11" font-weight="400" fill="#18211d">0</text>
<text x="601.0" y="221" text-anchor="middle" font-size="11" font-weight="700" fill="#18211d">1</text>
<text x="683.0" y="221" text-anchor="middle" font-size="11" font-weight="400" fill="#18211d">0</text>
<text x="765.0" y="221" text-anchor="middle" font-size="11" font-weight="400" fill="#18211d">0</text>
<text x="12" y="255" font-size="11">B handshake</text>
<line x1="150" y1="268" x2="806" y2="268" stroke="#c6bfb1"/>
<text x="191.0" y="255" text-anchor="middle" font-size="11" font-weight="400" fill="#18211d">0</text>
<text x="273.0" y="255" text-anchor="middle" font-size="11" font-weight="400" fill="#18211d">0</text>
<text x="355.0" y="255" text-anchor="middle" font-size="11" font-weight="400" fill="#18211d">0</text>
<text x="437.0" y="255" text-anchor="middle" font-size="11" font-weight="400" fill="#18211d">0</text>
<text x="519.0" y="255" text-anchor="middle" font-size="11" font-weight="400" fill="#18211d">0</text>
<text x="601.0" y="255" text-anchor="middle" font-size="11" font-weight="400" fill="#18211d">0</text>
<text x="683.0" y="255" text-anchor="middle" font-size="11" font-weight="400" fill="#18211d">0</text>
<text x="765.0" y="255" text-anchor="middle" font-size="11" font-weight="400" fill="#18211d">0</text>
<text x="12" y="289" font-size="11">CPU response</text>
<line x1="150" y1="302" x2="806" y2="302" stroke="#c6bfb1"/>
<text x="191.0" y="289" text-anchor="middle" font-size="11" font-weight="400" fill="#18211d">0</text>
<text x="273.0" y="289" text-anchor="middle" font-size="11" font-weight="400" fill="#18211d">0</text>
<text x="355.0" y="289" text-anchor="middle" font-size="11" font-weight="400" fill="#18211d">0</text>
<text x="437.0" y="289" text-anchor="middle" font-size="11" font-weight="400" fill="#18211d">0</text>
<text x="519.0" y="289" text-anchor="middle" font-size="11" font-weight="400" fill="#18211d">0</text>
<text x="601.0" y="289" text-anchor="middle" font-size="11" font-weight="400" fill="#18211d">0</text>
<text x="683.0" y="289" text-anchor="middle" font-size="11" font-weight="400" fill="#18211d">0</text>
<text x="765.0" y="289" text-anchor="middle" font-size="11" font-weight="400" fill="#18211d">0</text>
<text x="12" y="323" font-size="11">assertion failure</text>
<line x1="150" y1="336" x2="806" y2="336" stroke="#c6bfb1"/>
<text x="191.0" y="323" text-anchor="middle" font-size="11" font-weight="400" fill="#18211d"></text>
<text x="273.0" y="323" text-anchor="middle" font-size="11" font-weight="400" fill="#18211d"></text>
<text x="355.0" y="323" text-anchor="middle" font-size="11" font-weight="400" fill="#18211d"></text>
<text x="437.0" y="323" text-anchor="middle" font-size="11" font-weight="400" fill="#18211d"></text>
<text x="519.0" y="323" text-anchor="middle" font-size="11" font-weight="400" fill="#18211d"></text>
<text x="601.0" y="323" text-anchor="middle" font-size="11" font-weight="700" fill="#a62920">FAIL</text>
<text x="683.0" y="323" text-anchor="middle" font-size="11" font-weight="400" fill="#18211d"></text>
<text x="765.0" y="323" text-anchor="middle" font-size="11" font-weight="400" fill="#18211d"></text>
</g>
</svg>
